<mxfile host="Electron" agent="Mozilla/5.0 (Windows NT 10.0; Win64; x64) AppleWebKit/537.36 (KHTML, like Gecko) draw.io/26.0.4 Chrome/128.0.6613.186 Electron/32.2.5 Safari/537.36" version="26.0.4" pages="7">
  <diagram id="5grqrbGuKbxhraN_0sHc" name="Profession">
    <mxGraphModel dx="1338" dy="836" grid="1" gridSize="10" guides="1" tooltips="1" connect="1" arrows="1" fold="1" page="1" pageScale="1" pageWidth="850" pageHeight="1100" math="0" shadow="0">
      <root>
        <mxCell id="0" />
        <mxCell id="1" parent="0" />
        <mxCell id="iJiaecJhwo1NTgeZymIa-1" value="Profession" style="swimlane;fontStyle=2;align=center;verticalAlign=top;childLayout=stackLayout;horizontal=1;startSize=26;horizontalStack=0;resizeParent=1;resizeLast=0;collapsible=1;marginBottom=0;rounded=0;shadow=0;strokeWidth=1;" vertex="1" parent="1">
          <mxGeometry x="220" y="120" width="160" height="164" as="geometry">
            <mxRectangle x="230" y="140" width="160" height="26" as="alternateBounds" />
          </mxGeometry>
        </mxCell>
        <mxCell id="iJiaecJhwo1NTgeZymIa-2" value="Name" style="text;align=left;verticalAlign=top;spacingLeft=4;spacingRight=4;overflow=hidden;rotatable=0;points=[[0,0.5],[1,0.5]];portConstraint=eastwest;" vertex="1" parent="iJiaecJhwo1NTgeZymIa-1">
          <mxGeometry y="26" width="160" height="26" as="geometry" />
        </mxCell>
        <mxCell id="iJiaecJhwo1NTgeZymIa-42" value="xp" style="text;align=left;verticalAlign=top;spacingLeft=4;spacingRight=4;overflow=hidden;rotatable=0;points=[[0,0.5],[1,0.5]];portConstraint=eastwest;rounded=0;shadow=0;html=0;" vertex="1" parent="iJiaecJhwo1NTgeZymIa-1">
          <mxGeometry y="52" width="160" height="26" as="geometry" />
        </mxCell>
        <mxCell id="iJiaecJhwo1NTgeZymIa-3" value="Level" style="text;align=left;verticalAlign=top;spacingLeft=4;spacingRight=4;overflow=hidden;rotatable=0;points=[[0,0.5],[1,0.5]];portConstraint=eastwest;rounded=0;shadow=0;html=0;" vertex="1" parent="iJiaecJhwo1NTgeZymIa-1">
          <mxGeometry y="78" width="160" height="26" as="geometry" />
        </mxCell>
        <mxCell id="iJiaecJhwo1NTgeZymIa-4" value="skills_by_level" style="text;align=left;verticalAlign=top;spacingLeft=4;spacingRight=4;overflow=hidden;rotatable=0;points=[[0,0.5],[1,0.5]];portConstraint=eastwest;rounded=0;shadow=0;html=0;" vertex="1" parent="iJiaecJhwo1NTgeZymIa-1">
          <mxGeometry y="104" width="160" height="26" as="geometry" />
        </mxCell>
        <mxCell id="iJiaecJhwo1NTgeZymIa-5" value="" style="line;html=1;strokeWidth=1;align=left;verticalAlign=middle;spacingTop=-1;spacingLeft=3;spacingRight=3;rotatable=0;labelPosition=right;points=[];portConstraint=eastwest;" vertex="1" parent="iJiaecJhwo1NTgeZymIa-1">
          <mxGeometry y="130" width="160" height="8" as="geometry" />
        </mxCell>
        <mxCell id="iJiaecJhwo1NTgeZymIa-6" value="class_level_up" style="text;align=left;verticalAlign=top;spacingLeft=4;spacingRight=4;overflow=hidden;rotatable=0;points=[[0,0.5],[1,0.5]];portConstraint=eastwest;" vertex="1" parent="iJiaecJhwo1NTgeZymIa-1">
          <mxGeometry y="138" width="160" height="26" as="geometry" />
        </mxCell>
        <mxCell id="iJiaecJhwo1NTgeZymIa-32" value="Skill" style="swimlane;fontStyle=2;align=center;verticalAlign=top;childLayout=stackLayout;horizontal=1;startSize=26;horizontalStack=0;resizeParent=1;resizeLast=0;collapsible=1;marginBottom=0;rounded=0;shadow=0;strokeWidth=1;" vertex="1" parent="1">
          <mxGeometry x="590" y="170" width="160" height="134" as="geometry">
            <mxRectangle x="230" y="140" width="160" height="26" as="alternateBounds" />
          </mxGeometry>
        </mxCell>
        <mxCell id="iJiaecJhwo1NTgeZymIa-33" value="Name" style="text;align=left;verticalAlign=top;spacingLeft=4;spacingRight=4;overflow=hidden;rotatable=0;points=[[0,0.5],[1,0.5]];portConstraint=eastwest;" vertex="1" parent="iJiaecJhwo1NTgeZymIa-32">
          <mxGeometry y="26" width="160" height="26" as="geometry" />
        </mxCell>
        <mxCell id="iJiaecJhwo1NTgeZymIa-34" value="Cast Time" style="text;align=left;verticalAlign=top;spacingLeft=4;spacingRight=4;overflow=hidden;rotatable=0;points=[[0,0.5],[1,0.5]];portConstraint=eastwest;rounded=0;shadow=0;html=0;" vertex="1" parent="iJiaecJhwo1NTgeZymIa-32">
          <mxGeometry y="52" width="160" height="26" as="geometry" />
        </mxCell>
        <mxCell id="iJiaecJhwo1NTgeZymIa-35" value="Cost" style="text;align=left;verticalAlign=top;spacingLeft=4;spacingRight=4;overflow=hidden;rotatable=0;points=[[0,0.5],[1,0.5]];portConstraint=eastwest;rounded=0;shadow=0;html=0;" vertex="1" parent="iJiaecJhwo1NTgeZymIa-32">
          <mxGeometry y="78" width="160" height="26" as="geometry" />
        </mxCell>
        <mxCell id="Kisl_OwSRE8ZpC2P2OY2-1" value="Resource" style="text;strokeColor=none;fillColor=none;align=left;verticalAlign=middle;spacingLeft=4;spacingRight=4;overflow=hidden;points=[[0,0.5],[1,0.5]];portConstraint=eastwest;rotatable=0;whiteSpace=wrap;html=1;" vertex="1" parent="iJiaecJhwo1NTgeZymIa-32">
          <mxGeometry y="104" width="160" height="30" as="geometry" />
        </mxCell>
        <mxCell id="iJiaecJhwo1NTgeZymIa-41" style="edgeStyle=orthogonalEdgeStyle;rounded=0;orthogonalLoop=1;jettySize=auto;html=1;" edge="1" parent="1" source="iJiaecJhwo1NTgeZymIa-4" target="iJiaecJhwo1NTgeZymIa-32">
          <mxGeometry relative="1" as="geometry" />
        </mxCell>
      </root>
    </mxGraphModel>
  </diagram>
  <diagram id="PIbwtRk7vnx8kBwGKRbf" name="Stats">
    <mxGraphModel dx="1338" dy="836" grid="1" gridSize="10" guides="1" tooltips="1" connect="1" arrows="1" fold="1" page="1" pageScale="1" pageWidth="850" pageHeight="1100" math="0" shadow="0">
      <root>
        <mxCell id="0" />
        <mxCell id="1" parent="0" />
        <mxCell id="9hiCP10UZVl91oaV2X0Z-1" value="Stats" style="swimlane;fontStyle=0;align=center;verticalAlign=top;childLayout=stackLayout;horizontal=1;startSize=26;horizontalStack=0;resizeParent=1;resizeLast=0;collapsible=1;marginBottom=0;rounded=0;shadow=0;strokeWidth=1;" vertex="1" parent="1">
          <mxGeometry x="120" y="80" width="120" height="232" as="geometry">
            <mxRectangle x="130" y="380" width="160" height="26" as="alternateBounds" />
          </mxGeometry>
        </mxCell>
        <mxCell id="9hiCP10UZVl91oaV2X0Z-8" value="Vitality" style="text;strokeColor=none;fillColor=none;align=left;verticalAlign=middle;spacingLeft=4;spacingRight=4;overflow=hidden;points=[[0,0.5],[1,0.5]];portConstraint=eastwest;rotatable=0;whiteSpace=wrap;html=1;" vertex="1" parent="9hiCP10UZVl91oaV2X0Z-1">
          <mxGeometry y="26" width="120" height="30" as="geometry" />
        </mxCell>
        <mxCell id="9hiCP10UZVl91oaV2X0Z-2" value="Power" style="text;align=left;verticalAlign=top;spacingLeft=4;spacingRight=4;overflow=hidden;rotatable=0;points=[[0,0.5],[1,0.5]];portConstraint=eastwest;" vertex="1" parent="9hiCP10UZVl91oaV2X0Z-1">
          <mxGeometry y="56" width="120" height="26" as="geometry" />
        </mxCell>
        <mxCell id="9hiCP10UZVl91oaV2X0Z-3" value="Cunning" style="text;align=left;verticalAlign=top;spacingLeft=4;spacingRight=4;overflow=hidden;rotatable=0;points=[[0,0.5],[1,0.5]];portConstraint=eastwest;rounded=0;shadow=0;html=0;" vertex="1" parent="9hiCP10UZVl91oaV2X0Z-1">
          <mxGeometry y="82" width="120" height="26" as="geometry" />
        </mxCell>
        <mxCell id="M3VcsX9LbdZnNLnVpw9c-10" value="Accuracy" style="text;strokeColor=none;fillColor=none;align=left;verticalAlign=middle;spacingLeft=4;spacingRight=4;overflow=hidden;points=[[0,0.5],[1,0.5]];portConstraint=eastwest;rotatable=0;whiteSpace=wrap;html=1;" vertex="1" parent="9hiCP10UZVl91oaV2X0Z-1">
          <mxGeometry y="108" width="120" height="30" as="geometry" />
        </mxCell>
        <mxCell id="9hiCP10UZVl91oaV2X0Z-4" value="Agility" style="text;strokeColor=none;fillColor=none;align=left;verticalAlign=middle;spacingLeft=4;spacingRight=4;overflow=hidden;points=[[0,0.5],[1,0.5]];portConstraint=eastwest;rotatable=0;whiteSpace=wrap;html=1;" vertex="1" parent="9hiCP10UZVl91oaV2X0Z-1">
          <mxGeometry y="138" width="120" height="30" as="geometry" />
        </mxCell>
        <mxCell id="9hiCP10UZVl91oaV2X0Z-9" value="Aptitude/Atunement" style="text;strokeColor=none;fillColor=none;align=left;verticalAlign=middle;spacingLeft=4;spacingRight=4;overflow=hidden;points=[[0,0.5],[1,0.5]];portConstraint=eastwest;rotatable=0;whiteSpace=wrap;html=1;" vertex="1" parent="9hiCP10UZVl91oaV2X0Z-1">
          <mxGeometry y="168" width="120" height="30" as="geometry" />
        </mxCell>
        <mxCell id="9hiCP10UZVl91oaV2X0Z-7" value="Get Seminars Taken" style="text;align=left;verticalAlign=top;spacingLeft=4;spacingRight=4;overflow=hidden;rotatable=0;points=[[0,0.5],[1,0.5]];portConstraint=eastwest;" vertex="1" parent="9hiCP10UZVl91oaV2X0Z-1">
          <mxGeometry y="198" width="120" height="26" as="geometry" />
        </mxCell>
        <mxCell id="9hiCP10UZVl91oaV2X0Z-5" value="" style="line;html=1;strokeWidth=1;align=left;verticalAlign=middle;spacingTop=-1;spacingLeft=3;spacingRight=3;rotatable=0;labelPosition=right;points=[];portConstraint=eastwest;" vertex="1" parent="9hiCP10UZVl91oaV2X0Z-1">
          <mxGeometry y="224" width="120" height="8" as="geometry" />
        </mxCell>
        <mxCell id="M3VcsX9LbdZnNLnVpw9c-3" value="Weapon Attacks" style="rounded=0;whiteSpace=wrap;html=1;" vertex="1" parent="1">
          <mxGeometry x="480" y="102" width="120" height="60" as="geometry" />
        </mxCell>
        <mxCell id="M3VcsX9LbdZnNLnVpw9c-2" style="edgeStyle=orthogonalEdgeStyle;rounded=0;orthogonalLoop=1;jettySize=auto;html=1;exitX=1;exitY=0.5;exitDx=0;exitDy=0;" edge="1" parent="1" source="9hiCP10UZVl91oaV2X0Z-2" target="M3VcsX9LbdZnNLnVpw9c-3">
          <mxGeometry relative="1" as="geometry">
            <mxPoint x="330" y="121" as="targetPoint" />
            <Array as="points">
              <mxPoint x="400" y="149" />
              <mxPoint x="400" y="132" />
            </Array>
          </mxGeometry>
        </mxCell>
        <mxCell id="M3VcsX9LbdZnNLnVpw9c-5" value="Health" style="rounded=0;whiteSpace=wrap;html=1;" vertex="1" parent="1">
          <mxGeometry x="480" y="20" width="120" height="60" as="geometry" />
        </mxCell>
        <mxCell id="M3VcsX9LbdZnNLnVpw9c-4" style="edgeStyle=orthogonalEdgeStyle;rounded=0;orthogonalLoop=1;jettySize=auto;html=1;exitX=1;exitY=0.5;exitDx=0;exitDy=0;entryX=0;entryY=0.5;entryDx=0;entryDy=0;" edge="1" parent="1" source="9hiCP10UZVl91oaV2X0Z-8" target="M3VcsX9LbdZnNLnVpw9c-5">
          <mxGeometry relative="1" as="geometry">
            <mxPoint x="370" y="50" as="targetPoint" />
            <Array as="points">
              <mxPoint x="280" y="121" />
              <mxPoint x="280" y="50" />
            </Array>
          </mxGeometry>
        </mxCell>
        <mxCell id="M3VcsX9LbdZnNLnVpw9c-7" value="Cunning" style="rounded=0;whiteSpace=wrap;html=1;" vertex="1" parent="1">
          <mxGeometry x="480" y="170" width="120" height="60" as="geometry" />
        </mxCell>
        <mxCell id="M3VcsX9LbdZnNLnVpw9c-6" style="edgeStyle=orthogonalEdgeStyle;rounded=0;orthogonalLoop=1;jettySize=auto;html=1;" edge="1" parent="1" source="9hiCP10UZVl91oaV2X0Z-3" target="M3VcsX9LbdZnNLnVpw9c-7">
          <mxGeometry relative="1" as="geometry">
            <mxPoint x="280" y="175" as="targetPoint" />
            <Array as="points">
              <mxPoint x="400" y="175" />
              <mxPoint x="400" y="200" />
            </Array>
          </mxGeometry>
        </mxCell>
        <mxCell id="M3VcsX9LbdZnNLnVpw9c-9" value="" style="rounded=0;whiteSpace=wrap;html=1;" vertex="1" parent="1">
          <mxGeometry x="480" y="320" width="120" height="60" as="geometry" />
        </mxCell>
        <mxCell id="M3VcsX9LbdZnNLnVpw9c-8" style="edgeStyle=orthogonalEdgeStyle;rounded=0;orthogonalLoop=1;jettySize=auto;html=1;entryX=0;entryY=0.5;entryDx=0;entryDy=0;" edge="1" parent="1" source="9hiCP10UZVl91oaV2X0Z-4" target="M3VcsX9LbdZnNLnVpw9c-9">
          <mxGeometry relative="1" as="geometry">
            <mxPoint x="310" y="260" as="targetPoint" />
            <Array as="points">
              <mxPoint x="320" y="233" />
              <mxPoint x="320" y="350" />
            </Array>
          </mxGeometry>
        </mxCell>
        <mxCell id="M3VcsX9LbdZnNLnVpw9c-12" value="Chance to hit" style="rounded=0;whiteSpace=wrap;html=1;" vertex="1" parent="1">
          <mxGeometry x="480" y="240" width="120" height="60" as="geometry" />
        </mxCell>
        <mxCell id="M3VcsX9LbdZnNLnVpw9c-11" style="edgeStyle=orthogonalEdgeStyle;rounded=0;orthogonalLoop=1;jettySize=auto;html=1;entryX=0;entryY=0.5;entryDx=0;entryDy=0;" edge="1" parent="1" source="M3VcsX9LbdZnNLnVpw9c-10" target="M3VcsX9LbdZnNLnVpw9c-12">
          <mxGeometry relative="1" as="geometry">
            <mxPoint x="560" y="203" as="targetPoint" />
            <Array as="points">
              <mxPoint x="360" y="203" />
              <mxPoint x="360" y="270" />
            </Array>
          </mxGeometry>
        </mxCell>
        <mxCell id="M3VcsX9LbdZnNLnVpw9c-14" value="Magic" style="rounded=0;whiteSpace=wrap;html=1;" vertex="1" parent="1">
          <mxGeometry x="480" y="400" width="120" height="60" as="geometry" />
        </mxCell>
        <mxCell id="M3VcsX9LbdZnNLnVpw9c-13" style="edgeStyle=orthogonalEdgeStyle;rounded=0;orthogonalLoop=1;jettySize=auto;html=1;entryX=0;entryY=0.5;entryDx=0;entryDy=0;" edge="1" parent="1" source="9hiCP10UZVl91oaV2X0Z-9" target="M3VcsX9LbdZnNLnVpw9c-14">
          <mxGeometry relative="1" as="geometry">
            <mxPoint x="310" y="410" as="targetPoint" />
            <Array as="points">
              <mxPoint x="280" y="263" />
              <mxPoint x="280" y="430" />
            </Array>
          </mxGeometry>
        </mxCell>
      </root>
    </mxGraphModel>
  </diagram>
  <diagram id="x5oMg_AhzFeJ5XZkcJ1T" name="Monk">
    <mxGraphModel dx="1674" dy="836" grid="1" gridSize="10" guides="1" tooltips="1" connect="1" arrows="1" fold="1" page="1" pageScale="1" pageWidth="850" pageHeight="1100" math="0" shadow="0">
      <root>
        <mxCell id="0" />
        <mxCell id="1" parent="0" />
        <mxCell id="AG7_T75ga6Di6KI83IxX-1" style="edgeStyle=orthogonalEdgeStyle;rounded=0;orthogonalLoop=1;jettySize=auto;html=1;exitX=0.5;exitY=1;exitDx=0;exitDy=0;entryX=0.5;entryY=0;entryDx=0;entryDy=0;" parent="1" source="UJvm_a6JNeOqfkn0x4yK-1" target="AG7_T75ga6Di6KI83IxX-3" edge="1">
          <mxGeometry relative="1" as="geometry">
            <mxPoint x="680" y="200" as="targetPoint" />
          </mxGeometry>
        </mxCell>
        <mxCell id="5wQChRIVlTExBuUIav3a-5" style="edgeStyle=orthogonalEdgeStyle;rounded=0;orthogonalLoop=1;jettySize=auto;html=1;exitX=0.5;exitY=1;exitDx=0;exitDy=0;" parent="1" source="UJvm_a6JNeOqfkn0x4yK-1" target="5wQChRIVlTExBuUIav3a-6" edge="1">
          <mxGeometry relative="1" as="geometry">
            <mxPoint x="120" y="200" as="targetPoint" />
          </mxGeometry>
        </mxCell>
        <mxCell id="UJvm_a6JNeOqfkn0x4yK-1" value="Honed Strike&lt;div&gt;&lt;br&gt;&lt;/div&gt;&lt;div&gt;Training has allowed practicers of the martial arts bonuses to Melee attacks without holding a hand.&lt;/div&gt;" style="rounded=0;whiteSpace=wrap;html=1;" parent="1" vertex="1">
          <mxGeometry x="360" y="40" width="190" height="80" as="geometry" />
        </mxCell>
        <mxCell id="AG7_T75ga6Di6KI83IxX-3" value="Path of the beast" style="swimlane;whiteSpace=wrap;html=1;" parent="1" vertex="1">
          <mxGeometry x="440" y="200" width="410" height="280" as="geometry" />
        </mxCell>
        <mxCell id="AG7_T75ga6Di6KI83IxX-4" value="Turtle Stance&lt;div&gt;&lt;br&gt;&lt;/div&gt;&lt;div&gt;- Gain defense&lt;/div&gt;" style="rounded=0;whiteSpace=wrap;html=1;" parent="AG7_T75ga6Di6KI83IxX-3" vertex="1">
          <mxGeometry x="10" y="80" width="120" height="90" as="geometry" />
        </mxCell>
        <mxCell id="5wQChRIVlTExBuUIav3a-1" value="By watching animals in nature, they are able to incorporate their movements and other aspects into their fighting style." style="text;html=1;align=center;verticalAlign=middle;whiteSpace=wrap;rounded=0;" parent="AG7_T75ga6Di6KI83IxX-3" vertex="1">
          <mxGeometry x="10" y="30" width="270" height="50" as="geometry" />
        </mxCell>
        <mxCell id="5wQChRIVlTExBuUIav3a-2" value="Viper Stance&lt;div&gt;&lt;br&gt;&lt;/div&gt;&lt;div&gt;Quick attack that poisons opponent&lt;/div&gt;" style="rounded=0;whiteSpace=wrap;html=1;" parent="AG7_T75ga6Di6KI83IxX-3" vertex="1">
          <mxGeometry x="150" y="80" width="120" height="90" as="geometry" />
        </mxCell>
        <mxCell id="5wQChRIVlTExBuUIav3a-3" value="Tiger stance&lt;div&gt;&lt;br&gt;&lt;/div&gt;&lt;div&gt;Quick Slashing attacks&lt;/div&gt;" style="rounded=0;whiteSpace=wrap;html=1;" parent="AG7_T75ga6Di6KI83IxX-3" vertex="1">
          <mxGeometry x="280" y="80" width="120" height="90" as="geometry" />
        </mxCell>
        <mxCell id="5wQChRIVlTExBuUIav3a-4" value="Eagle&lt;div&gt;- Fly up and dive towards a target&lt;/div&gt;" style="rounded=0;whiteSpace=wrap;html=1;" parent="AG7_T75ga6Di6KI83IxX-3" vertex="1">
          <mxGeometry x="10" y="200" width="120" height="70" as="geometry" />
        </mxCell>
        <mxCell id="5wQChRIVlTExBuUIav3a-6" value="" style="rounded=0;whiteSpace=wrap;html=1;" parent="1" vertex="1">
          <mxGeometry x="60" y="200" width="120" height="60" as="geometry" />
        </mxCell>
      </root>
    </mxGraphModel>
  </diagram>
  <diagram id="bbOPB4UDvmiXzITeHJj4" name="Warrior">
    <mxGraphModel dx="1674" dy="836" grid="1" gridSize="10" guides="1" tooltips="1" connect="1" arrows="1" fold="1" page="1" pageScale="1" pageWidth="850" pageHeight="1100" math="0" shadow="0">
      <root>
        <mxCell id="0" />
        <mxCell id="1" parent="0" />
        <mxCell id="uiCcwNQ1itmlCG-ljHoF-2" style="edgeStyle=orthogonalEdgeStyle;rounded=0;orthogonalLoop=1;jettySize=auto;html=1;exitX=0.5;exitY=1;exitDx=0;exitDy=0;entryX=0.5;entryY=0;entryDx=0;entryDy=0;" edge="1" parent="1" source="7nnMuzcxbGj69ef_14_u-1" target="7nnMuzcxbGj69ef_14_u-3">
          <mxGeometry relative="1" as="geometry" />
        </mxCell>
        <mxCell id="uiCcwNQ1itmlCG-ljHoF-3" style="edgeStyle=orthogonalEdgeStyle;rounded=0;orthogonalLoop=1;jettySize=auto;html=1;exitX=0.5;exitY=1;exitDx=0;exitDy=0;entryX=0.5;entryY=0;entryDx=0;entryDy=0;" edge="1" parent="1" source="7nnMuzcxbGj69ef_14_u-1" target="7nnMuzcxbGj69ef_14_u-2">
          <mxGeometry relative="1" as="geometry" />
        </mxCell>
        <mxCell id="uiCcwNQ1itmlCG-ljHoF-4" style="edgeStyle=orthogonalEdgeStyle;rounded=0;orthogonalLoop=1;jettySize=auto;html=1;exitX=0.5;exitY=1;exitDx=0;exitDy=0;entryX=0.5;entryY=0;entryDx=0;entryDy=0;" edge="1" parent="1" source="7nnMuzcxbGj69ef_14_u-1" target="7nnMuzcxbGj69ef_14_u-5">
          <mxGeometry relative="1" as="geometry" />
        </mxCell>
        <mxCell id="7nnMuzcxbGj69ef_14_u-1" value="" style="rounded=0;whiteSpace=wrap;html=1;" parent="1" vertex="1">
          <mxGeometry x="290" y="20" width="260" height="140" as="geometry" />
        </mxCell>
        <mxCell id="7nnMuzcxbGj69ef_14_u-2" value="Path of the Guardian" style="swimlane;whiteSpace=wrap;html=1;" parent="1" vertex="1">
          <mxGeometry x="600" y="230" width="200" height="320" as="geometry" />
        </mxCell>
        <mxCell id="7nnMuzcxbGj69ef_14_u-4" value="Defensive fighter focusing on protecting allies and disrupting enemies" style="text;html=1;align=center;verticalAlign=middle;whiteSpace=wrap;rounded=0;" parent="7nnMuzcxbGj69ef_14_u-2" vertex="1">
          <mxGeometry x="10" y="35" width="180" height="30" as="geometry" />
        </mxCell>
        <mxCell id="7nnMuzcxbGj69ef_14_u-3" value="Fighter" style="swimlane;whiteSpace=wrap;html=1;" parent="1" vertex="1">
          <mxGeometry x="320" y="230" width="200" height="320" as="geometry" />
        </mxCell>
        <mxCell id="7nnMuzcxbGj69ef_14_u-6" value="sxese" style="text;html=1;align=center;verticalAlign=middle;whiteSpace=wrap;rounded=0;" parent="7nnMuzcxbGj69ef_14_u-3" vertex="1">
          <mxGeometry x="10" y="30" width="180" height="40" as="geometry" />
        </mxCell>
        <mxCell id="7nnMuzcxbGj69ef_14_u-5" value="Mystic Warrior" style="swimlane;whiteSpace=wrap;html=1;" parent="1" vertex="1">
          <mxGeometry x="40" y="230" width="200" height="320" as="geometry" />
        </mxCell>
        <mxCell id="uiCcwNQ1itmlCG-ljHoF-1" value="&lt;h1 style=&quot;margin-top: 0px;&quot;&gt;Warrior&lt;/h1&gt;&lt;p&gt;Those who wish to use their might and tactics wielding various weapons to accomplish their goals.&lt;/p&gt;" style="text;html=1;whiteSpace=wrap;overflow=hidden;rounded=0;" vertex="1" parent="1">
          <mxGeometry x="330" y="30" width="180" height="120" as="geometry" />
        </mxCell>
      </root>
    </mxGraphModel>
  </diagram>
  <diagram id="SgJfD53JVVP-LB0ELAir" name="Ranger">
    <mxGraphModel dx="1674" dy="836" grid="1" gridSize="10" guides="1" tooltips="1" connect="1" arrows="1" fold="1" page="1" pageScale="1" pageWidth="850" pageHeight="1100" math="0" shadow="0">
      <root>
        <mxCell id="0" />
        <mxCell id="1" parent="0" />
      </root>
    </mxGraphModel>
  </diagram>
  <diagram id="R1aIXBEnBCDi_Y8lUsPH" name="Mage">
    <mxGraphModel dx="1674" dy="836" grid="1" gridSize="10" guides="1" tooltips="1" connect="1" arrows="1" fold="1" page="1" pageScale="1" pageWidth="850" pageHeight="1100" math="0" shadow="0">
      <root>
        <mxCell id="0" />
        <mxCell id="1" parent="0" />
      </root>
    </mxGraphModel>
  </diagram>
  <diagram id="wpGOYKp87dmXTinSfQ_d" name="Priest">
    <mxGraphModel dx="1674" dy="836" grid="1" gridSize="10" guides="1" tooltips="1" connect="1" arrows="1" fold="1" page="1" pageScale="1" pageWidth="850" pageHeight="1100" math="0" shadow="0">
      <root>
        <mxCell id="0" />
        <mxCell id="1" parent="0" />
      </root>
    </mxGraphModel>
  </diagram>
</mxfile>
